<!-- icon666.com - MILLIONS vector ICONS FREE --><svg viewBox="0 -21 511.99997 511" xmlns="http://www.w3.org/2000/svg"><path d="m311.882812 239.617188-26.839843-44.261719-183.457031-60.394531c-6.105469-2.007813-11.605469 4.347656-8.738282 10.101562l47.105469 94.554688zm0 0" fill="#ccbaa8" style="fill: rgb(40, 54, 24);"></path><path d="m303.953125 2.207031-77.382813 106.195313 67.621094 111.523437 60.761719-184.945312zm0 0" fill="#dbcdbd" style="fill: rgb(96, 108, 56);"></path><path d="m427.210938 439.308594-196.980469 30.953125c-2.296875.359375-4.628907-.40625-6.265625-2.058594l-221.855469-224.167969c-4.523437-4.566406-1.289063-12.324218 5.140625-12.324218h437.628906l64.871094 61.691406c2.472656 2.351562 2.964844 6.109375 1.183594 9.023437zm0 0" fill="#f3e8d6" style="fill: rgb(154, 164, 76);"></path><path d="m427.210938 439.308594 83.726562-136.886719c1.777344-2.910156 1.285156-6.667969-1.1875-9.019531l-64.867188-61.691406h-211.222656l131.761719 217.304687zm0 0" fill="#dbcdbd" style="fill: rgb(96, 108, 56);"></path><g fill="#f3e8d6"><path d="m397.148438.503906-93.195313 1.703125 132.105469 87.09375c6.101562 4.023438 13.640625-2.503906 10.53125-9.121093l-32.484375-69.125c-3.078125-6.550782-9.71875-10.683594-16.957031-10.550782zm0 0" fill="#f3e8d6" style="fill: rgb(154, 164, 76);"></path><path d="m262.863281 58.601562-36.292969 49.800782 200.640626 330.90625 83.726562-136.882813c1.777344-2.910156 1.285156-6.671875-1.1875-9.023437zm0 0" fill="#f3e8d6" style="fill: rgb(154, 164, 76);"></path></g></svg>